<?xml version="1.0" encoding="UTF-8"?>
<svg version="1.1" xmlns="http://www.w3.org/2000/svg" width="16" height="16">
<path d="M0 0 C1.0725 0.00515625 2.145 0.0103125 3.25 0.015625 C4.85875 0.00789063 4.85875 0.00789063 6.5 0 C9.25 0.265625 9.25 0.265625 11.25 2.265625 C11.515625 5.015625 11.515625 5.015625 11.5 8.265625 C11.50515625 9.338125 11.5103125 10.410625 11.515625 11.515625 C11.25 14.265625 11.25 14.265625 9.25 16.265625 C6.5 16.53125 6.5 16.53125 3.25 16.515625 C1.64125 16.52335937 1.64125 16.52335937 0 16.53125 C-2.75 16.265625 -2.75 16.265625 -4.75 14.265625 C-5.015625 11.515625 -5.015625 11.515625 -5 8.265625 C-5.00515625 7.193125 -5.0103125 6.120625 -5.015625 5.015625 C-4.64793525 1.20895466 -3.80667034 0.36768975 0 0 Z " fill="#AE2328" transform="translate(4.75,-0.265625)"/>
<path d="M0 0 C3 0.125 3 0.125 4 1.125 C4.125 4.125 4.125 4.125 4 7.125 C3 8.125 3 8.125 0 8.25 C-3 8.125 -3 8.125 -4 7.125 C-4.125 4.125 -4.125 4.125 -4 1.125 C-3 0.125 -3 0.125 0 0 Z " fill="#E4CEC9" transform="translate(8,3.875)"/>
<path d="M0 0 C0.66 0 1.32 0 2 0 C2 0.66 2 1.32 2 2 C2.66 2 3.32 2 4 2 C4 2.66 4 3.32 4 4 C3.34 4 2.68 4 2 4 C2 4.66 2 5.32 2 6 C1.34 6 0.68 6 0 6 C0 5.34 0 4.68 0 4 C-0.66 4 -1.32 4 -2 4 C-2 3.34 -2 2.68 -2 2 C-1.34 2 -0.68 2 0 2 C0 1.34 0 0.68 0 0 Z " fill="#41B76D" transform="translate(7,5)"/>
</svg>
